<svg width="27" height="46" viewBox="0 0 27 46" fill="none" xmlns="http://www.w3.org/2000/svg">
<path d="M10.4771 45.3367C9.02193 45.2269 7.03179 44.8968 5.89848 44.5773C4.0633 44.06 2.66602 43.1588 2.66815 42.4938L2.66908 42.1477L3.01868 42.6228C3.45036 43.2096 4.01979 43.5864 5.09608 43.9975C7.80984 45.034 13.0118 45.4492 17.3015 44.9716C21.1395 44.5444 23.3104 43.7611 24.107 42.516L24.3427 42.1477L24.3474 42.4996C24.3516 42.7984 24.2611 42.9266 23.7495 43.3483C22.7122 44.2033 20.6628 44.8469 17.8347 45.2058C16.5226 45.3724 12.0123 45.4526 10.4771 45.3367ZM11.4952 44.962C6.82844 44.6411 4.00992 43.8155 3.20549 42.5337C2.87471 42.0067 2.86722 41.6849 3.17071 41.0391C3.43322 40.4804 3.97054 40.0373 3.97054 40.3795C3.97054 40.4485 4.1894 40.6988 4.45689 40.9357C5.30558 41.6874 7.03165 42.2138 9.83623 42.5765C11.2558 42.76 16.0259 42.7328 17.5164 42.5326C20.6128 42.1167 22.3337 41.4583 23.1188 40.3891C23.2375 40.2274 23.2736 40.2434 23.565 40.5867C23.7394 40.7921 23.9469 41.2011 24.0261 41.4955C24.1663 42.0165 24.1604 42.0449 23.808 42.5512C22.804 43.9935 19.4763 44.8428 14.2207 44.998C13.3734 45.023 12.1469 45.0068 11.4952 44.962ZM10.962 42.5064C7.16892 42.1508 5.32555 41.6166 4.35565 40.592C4.11977 40.3428 4.08903 40.2006 4.08903 39.3583C4.08903 38.8347 4.13484 38.4063 4.19084 38.4063C4.24683 38.4063 4.68676 38.5476 5.16845 38.7202C6.4418 39.1765 7.97286 39.555 9.72139 39.8456C11.0934 40.0736 11.4996 40.101 13.5097 40.1008C15.5026 40.1007 15.9381 40.0718 17.3016 39.8494C18.9562 39.5796 20.4308 39.2153 21.8827 38.7176C22.3822 38.5464 22.8223 38.4063 22.8607 38.4063C22.899 38.4063 22.9303 38.8241 22.9303 39.3347C22.9303 40.3962 22.8158 40.6448 22.134 41.063C20.5293 42.0476 18.1343 42.4752 13.9837 42.5182C12.5498 42.5331 11.1901 42.5278 10.962 42.5064ZM10.7165 39.8413C8.77478 39.5941 6.95507 39.1693 5.12414 38.5359C4.00359 38.1482 3.97871 38.1192 4.20968 37.4709C4.29495 37.2316 4.47236 37.0626 4.83114 36.8787C5.51091 36.5303 6.9655 35.6086 7.76974 35.0166C8.39181 34.5587 9.24851 34.176 9.39527 34.2904C9.43194 34.319 9.40072 34.5492 9.32591 34.8019C9.25109 35.0546 9.22026 35.323 9.25741 35.3985C9.34984 35.5863 10.3707 35.8701 11.3994 35.9941C13.7938 36.2827 17.5019 35.9268 17.7697 35.3827C17.8112 35.2986 17.7796 35.0306 17.6996 34.7873C17.6196 34.544 17.5849 34.321 17.6225 34.2917C17.7797 34.1691 18.6169 34.5622 19.4122 35.1322C19.8807 35.4679 20.7974 36.0558 21.4491 36.4384C22.6606 37.1498 22.9156 37.4037 22.925 37.9081C22.9302 38.1864 22.8914 38.208 21.6565 38.6138C18.6669 39.5963 16.9958 39.8815 13.9244 39.9335C12.4001 39.9592 11.4227 39.9313 10.7165 39.8413ZM3.48583 36.6324C2.40787 36.2126 1.16949 35.2239 0.611245 34.3374C0.0576157 33.4582 -0.0462015 32.9934 0.0159241 31.672C0.467208 22.0731 0.937487 16.2415 1.42098 14.2489C1.92463 12.1733 3.22484 10.9643 5.70961 10.2612C6.88585 9.92835 6.95174 9.94505 6.90928 10.5654L6.87377 11.0848L6.13914 11.2602C4.86444 11.5646 3.80053 12.3688 3.43224 13.3065C3.20133 13.8944 2.99148 15.395 2.67387 18.7297C2.54079 20.1269 2.35296 22.0599 2.25649 23.0253C1.84328 27.16 1.46581 31.9451 1.50211 32.5885C1.53403 33.1543 1.61665 33.403 1.94717 33.928C2.46461 34.7499 3.51199 35.5723 4.61081 36.0194L5.42883 36.3523L4.9189 36.6403C4.63845 36.7987 4.37217 36.9283 4.32719 36.9283C4.2822 36.9283 3.90358 36.7951 3.48583 36.6324ZM22.3876 36.7781C22.1976 36.7012 21.9471 36.5713 21.8309 36.4893C21.6322 36.3491 21.6672 36.321 22.4232 36.0134C23.399 35.6164 24.5637 34.742 24.9897 34.0866C25.6126 33.1284 25.6628 32.7838 25.4749 30.76C25.3818 29.7576 25.2764 28.5842 25.2408 28.1523C25.0242 25.5259 24.1601 16.5569 23.9904 15.1731C23.7679 13.3583 23.4219 12.6399 22.4255 11.9239C21.9517 11.5835 20.8104 11.1546 20.3782 11.1546C20.2454 11.1546 20.2049 11.0251 20.2049 10.6004C20.2049 9.95194 20.2106 9.95017 21.3098 10.2612C22.7842 10.6784 23.8476 11.2985 24.6308 12.1977C25.4933 13.1879 25.748 14.2498 26.1865 18.6835C26.6916 23.79 27.1516 32.5281 26.9525 33.2331C26.5359 34.7087 24.9412 36.1986 23.1561 36.78C22.7803 36.9024 22.6945 36.9021 22.3876 36.7781ZM4.65041 35.8507C3.2504 35.2685 1.97428 34.0183 1.72705 32.9866C1.6298 32.5808 1.89857 28.8261 2.36737 24.0414C2.46694 23.0253 2.6295 21.3001 2.72861 20.2077C2.99795 17.2393 3.36216 14.2164 3.51331 13.695C3.86986 12.4651 5.01843 11.5544 6.43612 11.3777L6.933 11.3158V11.973V12.6302L6.49024 12.7744C5.95993 12.9472 5.55238 13.2298 5.31031 13.5926C5.10583 13.8991 4.78881 17.0818 4.21431 24.5957C3.68083 31.5732 3.65865 32.1545 3.90109 32.8042C4.28465 33.832 5.40377 34.4411 7.30537 34.657L7.85549 34.7195L7.24612 35.1577C6.23145 35.8874 5.74708 36.1894 5.59576 36.1866C5.51656 36.1851 5.09115 36.0339 4.65041 35.8507ZM20.4303 35.6046C19.1626 34.7597 19.1428 34.7345 19.6925 34.6639C21.3755 34.4478 22.4326 33.9748 22.9641 33.2001C23.2107 32.8406 23.2256 32.7109 23.2101 31.0622C23.1931 29.2531 22.6584 21.9226 22.1685 16.7821C21.9709 14.7088 21.8384 13.7866 21.7107 13.595C21.4664 13.2288 21.0602 12.9474 20.5238 12.7727L20.0757 12.6267L20.1107 12.0062L20.1456 11.3856L20.599 11.4067C21.8574 11.4654 23.1755 12.4867 23.5144 13.6658C23.6344 14.0829 24.017 17.1686 24.2282 19.4225C25.4688 32.6577 25.4587 32.5198 25.2372 33.188C24.896 34.217 23.7289 35.2887 22.3205 35.8663C21.8874 36.0439 21.4822 36.1892 21.4203 36.1892C21.3583 36.1892 20.9128 35.9261 20.4303 35.6046ZM11.3175 35.8192C10.4944 35.7095 9.85109 35.559 9.60515 35.4188C9.40316 35.3037 9.39544 35.2518 9.52576 34.8857C9.60872 34.6527 9.65505 34.0924 9.63468 33.5685L9.59921 32.6567L8.87023 32.4824C8.00021 32.2745 7.40698 31.8245 7.40698 31.3725C7.40698 31.007 6.94092 30.709 6.35461 30.6996C5.94188 30.693 5.92574 30.68 5.92574 30.3561C5.92574 30.171 5.83927 29.9424 5.73359 29.848C5.25834 29.4238 5.23998 29.3039 5.32667 27.189C5.37262 26.0675 5.45621 24.5341 5.51238 23.7813C5.61289 22.4342 5.60994 22.4059 5.32575 21.9892C4.93 21.409 4.94819 21.0959 5.3925 20.8398C5.67141 20.679 5.74814 20.564 5.74866 20.3058C5.74958 19.7672 5.9585 19.3402 6.3743 19.026L6.76594 18.7301L7.76783 18.8407C9.12856 18.9908 17.8903 18.9908 19.2508 18.8407L20.2519 18.7303L20.5985 18.984C21.0489 19.3138 21.2713 19.7315 21.2713 20.2477C21.2713 20.5845 21.3218 20.6838 21.538 20.7726C21.6846 20.8328 21.8438 20.9278 21.8916 20.9837C22.059 21.1791 21.9773 21.6426 21.7107 22.0091L21.442 22.3786L21.5855 24.7343C21.6644 26.0299 21.7326 27.6105 21.7371 28.2467L21.7454 29.4035L21.3839 29.7453C21.1036 30.0105 21.0482 30.1245 21.1369 30.2537C21.3249 30.5276 21.0795 30.7561 20.6298 30.7259C20.0965 30.6901 19.6124 30.9978 19.6124 31.3725C19.6124 31.8243 19.0192 32.2744 18.1491 32.4828L17.4202 32.6575L17.4394 33.7074C17.4499 34.2849 17.4766 34.9017 17.4986 35.0782C17.533 35.3539 17.4912 35.4169 17.2016 35.5262C16.3348 35.8533 12.8673 36.026 11.3175 35.8192ZM16.0446 32.5861C17.5995 32.4768 18.4328 32.2887 18.9601 31.9278C19.2973 31.697 19.3754 31.5779 19.3754 31.2942C19.3754 31.0246 19.4422 30.9108 19.6683 30.7953C19.961 30.6458 19.9596 30.645 18.3945 30.0196C17.5327 29.6753 16.1001 29.0312 15.211 28.5882C14.3218 28.1452 13.559 27.7828 13.5159 27.7828C13.4727 27.7828 13.1337 27.9426 12.7626 28.1379C11.6307 28.7335 9.6763 29.6231 8.42046 30.1143C7.76529 30.3705 7.20258 30.5997 7.16999 30.6235C7.13739 30.6473 7.23072 30.7296 7.37737 30.8064C7.5684 30.9066 7.64399 31.0373 7.64399 31.2675C7.64399 31.7226 8.22807 32.1562 9.11053 32.3562C10.3845 32.6449 13.6615 32.7535 16.0446 32.5861ZM7.69668 29.9472C9.11886 29.435 12.9741 27.6507 12.9759 27.5039C12.9762 27.4775 12.5098 27.1987 11.9396 26.8844C10.1442 25.8946 8.9358 25.1034 7.38321 23.901L5.87819 22.7355L5.81626 23.2037C5.73428 23.8235 5.51012 27.8351 5.51062 28.6735C5.51097 29.3271 5.51602 29.3376 6.05524 29.8051C6.35456 30.0646 6.64034 30.277 6.69029 30.277C6.74025 30.277 7.19312 30.1286 7.69668 29.9472ZM20.4903 30.2213C20.5928 30.1906 20.8638 29.9668 21.0925 29.7239C21.4897 29.3021 21.5084 29.2475 21.5084 28.5094C21.5085 27.5096 21.2812 23.3901 21.205 23.0112L21.1465 22.72L19.8758 23.7389C18.5343 24.8145 17.0875 25.7706 15.2279 26.8102C14.6088 27.1563 14.0794 27.4548 14.0516 27.4735C13.9705 27.5281 14.348 27.7234 16.2352 28.6035C17.6273 29.2528 20.1001 30.277 20.2754 30.277C20.2911 30.277 20.3878 30.2519 20.4903 30.2213ZM14.7518 26.583C15.3941 26.228 16.3372 25.6799 16.8476 25.3651C17.8624 24.7391 20.3315 22.8559 20.8431 22.3179L21.1643 21.98L21.06 20.7562L20.9557 19.5324L20.5634 19.2592C20.1982 19.0047 20.1254 18.9899 19.5066 19.0435C15.6362 19.3791 11.0942 19.3802 7.51365 19.0464C6.89263 18.9885 6.82491 19.0021 6.45763 19.2579C6.06608 19.5307 6.06495 19.5339 5.95829 20.7105L5.85139 21.8898L6.17191 22.2727C6.79722 23.0199 9.34311 24.8685 11.388 26.0603C12.4898 26.7024 13.4346 27.2279 13.4876 27.2281C13.5406 27.2283 14.1095 26.938 14.7518 26.583ZM21.4708 21.299C21.433 21.2253 21.4049 21.2471 21.3992 21.3548C21.3941 21.4521 21.4221 21.5067 21.4614 21.476C21.5008 21.4453 21.5051 21.3656 21.4708 21.299ZM8.30576 18.7262C7.65952 18.6817 7.05963 18.624 6.97264 18.598C6.86497 18.5658 6.8145 18.3729 6.8145 17.9935V17.4364H13.5153H20.2162L20.1809 18.0137L20.1456 18.5911L19.6124 18.6637C18.8301 18.7702 9.67922 18.8208 8.30576 18.7262ZM7.5667 16.7042L8.23648 16.1568V15.324C8.23648 14.779 8.2853 14.4676 8.37774 14.4231C8.55919 14.3357 15.0206 14.2891 17.1535 14.3598L18.7829 14.4138V15.2853V16.1568L19.4527 16.7042L20.1224 17.2516H13.5097H6.89692L7.5667 16.7042ZM7.06137 14.5351C7.15523 14.4636 7.98707 14.4398 8.07213 14.5061C8.11907 14.5427 7.89975 14.5726 7.58474 14.5726C7.26973 14.5726 7.03421 14.5557 7.06137 14.5351ZM19.0199 14.4988C19.0199 14.4582 19.2198 14.4404 19.4642 14.4593C20.1522 14.5125 20.2023 14.5573 19.5827 14.5653C19.2732 14.5693 19.0199 14.5394 19.0199 14.4988ZM6.1035 14.3092C6.1035 14.2544 6.25566 14.073 6.44162 13.9061C7.00432 13.4011 7.0515 13.2606 7.0515 12.0899C7.0515 11.4799 7.095 10.9598 7.14815 10.9342C7.37072 10.827 9.77691 10.6843 12.2654 10.6309C14.7321 10.5779 17.6299 10.6718 19.3161 10.8595L19.9086 10.9254L19.9679 12.133C20.0253 13.3041 20.0379 13.3511 20.3826 13.69C20.924 14.222 20.9721 14.2824 20.8994 14.3391C20.8623 14.368 20.1754 14.3449 19.3728 14.2878C17.8363 14.1785 7.22199 14.2265 6.48863 14.3461C6.24237 14.3862 6.1035 14.3729 6.1035 14.3092ZM7.0515 10.3492C7.0515 10.0771 7.14559 9.8868 7.40699 9.63038C7.60252 9.43857 7.76322 9.19383 7.76411 9.0865C7.77168 8.17671 8.62778 8.01741 13.5097 8.01741C16.8435 8.01741 18.063 8.09562 18.7008 8.35034C19.17 8.53771 19.2528 8.63284 19.2551 8.98722C19.2564 9.16304 19.3878 9.38729 19.6076 9.58768C19.8774 9.83379 19.9593 10.0008 19.9631 10.3121L19.9679 10.7166L19.0495 10.6548C16.0865 10.4554 15.2227 10.4186 13.5097 10.4186C12.4669 10.4186 11.0271 10.4571 10.3102 10.504C9.59328 10.551 8.56679 10.6187 8.0291 10.6544L7.05149 10.7193L7.0515 10.3492ZM8.73533 7.25292L8.76974 6.49414L9.30299 6.40547C10.0059 6.2886 17.1661 6.2893 17.7757 6.4063L18.2496 6.49729L18.2841 7.25449L18.3185 8.0117L17.5731 7.94344C17.1631 7.9059 15.3346 7.87518 13.5097 7.87518C11.6848 7.87518 9.85633 7.90589 9.44636 7.94344L8.70098 8.01169L8.73533 7.25292ZM7.8898 7.14676C7.60135 7.09012 7.34557 6.99639 7.32139 6.93846C7.27308 6.82273 8.32162 6.50872 8.48828 6.58901C8.6148 6.64997 8.62688 7.15607 8.5031 7.2106C8.45422 7.23213 8.17824 7.2034 7.8898 7.14676ZM18.5459 6.89539C18.5459 6.69756 18.5631 6.5357 18.584 6.5357C18.605 6.5357 18.8716 6.60196 19.1765 6.68295C19.9602 6.89113 19.9257 7.01341 19.0392 7.16868L18.5459 7.25508L18.5459 6.89539ZM6.97206 6.57419C6.931 6.49074 6.99806 6.35153 7.12831 6.25C8.03196 5.54554 16.4475 5.39682 19.3442 6.03411C19.8389 6.14296 19.98 6.2179 20.0398 6.40366C20.1458 6.73278 20.0435 6.76769 19.4669 6.59962C18.1637 6.21992 16.9531 6.12349 13.5097 6.12509C10.0795 6.12667 8.45665 6.25427 7.63041 6.58736C7.20684 6.75811 7.06116 6.7552 6.97206 6.57419ZM9.70804 5.54247C9.83708 5.44188 12.4727 5.22483 13.5689 5.22452C14.6411 5.22422 17.1826 5.44214 17.3155 5.54577C17.3296 5.55674 15.617 5.56572 13.5097 5.56572C11.4024 5.56572 9.69164 5.55526 9.70804 5.54247ZM11.3704 4.82821C11.4093 4.67661 11.5775 4.39187 11.7443 4.19544L12.0474 3.8383L11.8027 3.70468C11.6682 3.63119 11.4106 3.37552 11.2304 3.13653C10.5221 2.19723 10.922 0.932051 12.1135 0.343024C13.1481 -0.168513 14.3119 -0.104946 15.2391 0.51376C16.4091 1.29453 16.5071 2.69343 15.4513 3.54391L15.0942 3.83158L15.4573 4.27794C15.657 4.52344 15.8204 4.80973 15.8204 4.91416C15.8204 5.09909 15.7617 5.10402 13.5601 5.10392L11.2997 5.10383L11.3704 4.82821ZM12.6619 3.62577C13.2068 3.44829 13.9335 3.44908 14.482 3.62775C14.9025 3.76473 14.9223 3.76182 15.2634 3.51228C16.9044 2.31173 15.794 0.161588 13.533 0.161588C12.6676 0.161588 11.9633 0.458037 11.4656 1.03179C11.1283 1.42066 11.0805 1.55086 11.0805 2.08077C11.0805 2.73697 11.4133 3.33498 11.9381 3.62153C12.2512 3.7925 12.1519 3.7919 12.6619 3.62577Z" fill="black"/>
</svg>
